<svg xmlns="http://www.w3.org/2000/svg" viewBox="0 0 512 512">
  <defs>
    <linearGradient id="sky" x1="0" y1="0" x2="0" y2="1">
      <stop offset="0" stop-color="#6ec8ff"/>
      <stop offset="1" stop-color="#bff0ff"/>
    </linearGradient>
  </defs>
  <rect width="512" height="512" fill="url(#sky)"/>
  <ellipse cx="256" cy="420" rx="170" ry="40" fill="#8ee07a"/>
  <g stroke="#3b2a52" stroke-width="14" stroke-linejoin="round" stroke-linecap="round">
    <path d="M126 220 L236 164 L346 220 L346 356 L236 412 L126 356 Z" fill="#f4b860"/>
    <path d="M126 220 L236 276 L346 220 M236 276 V412" fill="none"/>
    <path d="M236 164 L346 220 L236 276 L126 220 Z" fill="#ffd9a0"/>
    <path d="M160 300 l30 16 M270 330 l40 -20 M290 380 l20 -10" fill="none" stroke-width="10"/>
    <g transform="rotate(38 330 170)">
      <rect x="316" y="120" width="30" height="190" rx="12" fill="#ffc94d"/>
      <rect x="258" y="70" width="146" height="72" rx="16" fill="#ff5d73"/>
    </g>
  </g>
  <g fill="#ffd35c" stroke="#3b2a52" stroke-width="8" stroke-linejoin="round">
    <path d="M120 110 l12 26 l28 4 l-20 20 l5 28 l-25 -13 l-25 13 l5 -28 l-20 -20 l28 -4 Z"/>
    <path d="M410 290 l9 18 l20 3 l-14 14 l3 20 l-18 -9 l-18 9 l3 -20 l-14 -14 l20 -3 Z"/>
  </g>
</svg>
